<svg width="35" height="26" viewBox="0 0 35 26" fill="none" xmlns="http://www.w3.org/2000/svg">
<path fill-rule="evenodd" clip-rule="evenodd" d="M6.8934 0.366117C7.38155 0.854272 7.38155 1.64573 6.8934 2.13388C1.03553 7.99175 1.03553 17.4892 6.8934 23.3471C7.38155 23.8352 7.38155 24.6267 6.8934 25.1149C6.40524 25.603 5.61379 25.603 5.12563 25.1149C-1.70854 18.2807 -1.70854 7.20029 5.12563 0.366117C5.61379 -0.122039 6.40524 -0.122039 6.8934 0.366117ZM28.1066 0.366117C28.5948 -0.122039 29.3862 -0.122039 29.8744 0.366117C36.7085 7.20029 36.7085 18.2807 29.8744 25.1149C29.3862 25.603 28.5948 25.603 28.1066 25.1149C27.6184 24.6267 27.6184 23.8352 28.1066 23.3471C33.9645 17.4892 33.9645 7.99175 28.1066 2.13388C27.6184 1.64573 27.6184 0.854272 28.1066 0.366117ZM10.4289 3.90165C10.9171 4.38981 10.9171 5.18126 10.4289 5.66942C6.52369 9.57466 6.52369 15.9063 10.4289 19.8116C10.9171 20.2997 10.9171 21.0912 10.4289 21.5793C9.94078 22.0675 9.14932 22.0675 8.66117 21.5793C3.77961 16.6978 3.77961 8.78321 8.66117 3.90165C9.14932 3.4135 9.94078 3.4135 10.4289 3.90165ZM24.5711 3.90165C25.0592 3.4135 25.8507 3.4135 26.3388 3.90165C31.2204 8.78321 31.2204 16.6978 26.3388 21.5793C25.8507 22.0675 25.0592 22.0675 24.5711 21.5793C24.0829 21.0912 24.0829 20.2997 24.5711 19.8116C28.4763 15.9063 28.4763 9.57466 24.5711 5.66942C24.0829 5.18126 24.0829 4.38981 24.5711 3.90165ZM13.9645 7.43719C14.4526 7.92534 14.4526 8.7168 13.9645 9.20495C12.0118 11.1576 12.0118 14.3234 13.9645 16.276C14.4526 16.7642 14.4526 17.5556 13.9645 18.0438C13.4763 18.5319 12.6849 18.5319 12.1967 18.0438C9.26777 15.1149 9.26777 10.3661 12.1967 7.43719C12.6849 6.94903 13.4763 6.94903 13.9645 7.43719ZM21.0355 7.43719C21.5237 6.94903 22.3151 6.94903 22.8033 7.43719C25.7322 10.3661 25.7322 15.1149 22.8033 18.0438C22.3151 18.5319 21.5237 18.5319 21.0355 18.0438C20.5474 17.5556 20.5474 16.7642 21.0355 16.276C22.9882 14.3234 22.9882 11.1576 21.0355 9.20495C20.5474 8.7168 20.5474 7.92534 21.0355 7.43719ZM15.625 12.7405C15.625 11.705 16.4645 10.8655 17.5 10.8655C18.5355 10.8655 19.375 11.705 19.375 12.7405C19.375 13.776 18.5355 14.6155 17.5 14.6155C16.4645 14.6155 15.625 13.776 15.625 12.7405Z" fill="white"/>
</svg>
