<svg width="39" height="40" viewBox="0 0 39 40" fill="none" xmlns="http://www.w3.org/2000/svg">
<path d="M38.6007 9.00547C38.4983 8.69844 38.1666 8.53258 37.8595 8.63484C36.752 9.00406 36.1484 9.55898 35.8343 10.2695C35.4127 9.89664 34.6591 9.57961 34.036 9.56437C33.7237 9.56437 33.4642 9.81086 33.4511 10.1259C33.4376 10.4492 33.6887 10.7223 34.0121 10.7358C34.7372 10.766 35.5244 11.3118 35.5263 12.0529C35.5248 12.1236 35.5263 13.812 35.5259 13.9062H35.1352C34.5537 13.9062 34.0805 14.3794 34.0805 14.9609V16.8723V23.0564C34.0805 23.9491 33.6912 24.7935 33.0124 25.3733C32.3555 25.937 31.3459 26.2351 30.4269 26.0423C30.9693 25.2845 30.9452 24.0659 30.1501 23.3417C30.9321 22.6105 31.0295 21.171 30.1255 20.3522C30.9184 19.6604 30.9734 18.1164 30.1002 17.3634C30.8937 16.6719 30.9491 15.1272 30.0756 14.3739C31.0955 13.4686 30.7929 11.6223 29.5703 11.0501V8.19953C30.4709 7.94375 31.1328 7.11445 31.1328 6.13297V5.15625H32.2266C33.1958 5.15625 33.9844 4.36773 33.9844 3.39844V1.75781C33.9844 0.788516 33.1958 0 32.2266 0H1.75781C0.788594 0 0 0.788516 0 1.75781V3.39844C0 4.36773 0.788594 5.15625 1.75781 5.15625H2.85156V6.13281C2.85156 6.77227 3.13266 7.34695 3.57742 7.74086C2.86086 8.47469 2.78828 9.87297 3.66719 10.6648C2.88656 11.3961 2.78867 12.8355 3.69164 13.6543C3.37953 13.9545 3.15891 14.3546 3.08609 14.8143C3.00812 15.4402 3.16945 16.1312 3.71641 16.644C2.9357 17.3753 2.83781 18.8146 3.74086 19.6334C2.96055 20.3645 2.86242 21.8035 3.76477 22.6223C2.97883 23.3668 2.88984 24.7879 3.7893 25.6118C2.77922 26.5203 3.03734 28.4262 4.40211 28.9862V31.804C3.50758 32.0637 2.85156 32.89 2.85156 33.8671V34.8438H1.75781C0.788594 34.8438 0 35.6323 0 36.6016V38.2422C0 39.2115 0.788594 40 1.75781 40H32.2266C33.1958 40 33.9844 39.2115 33.9844 38.2422V36.6016C33.9844 35.6323 33.1958 34.8438 32.2266 34.8438H31.1328V33.8672C31.1328 33.1939 30.8213 32.5923 30.3351 32.198C30.7688 31.71 31.0068 30.8953 30.7413 30.1492C32.4588 30.2641 34.3195 29.6026 35.651 28.4623C37.2348 27.1096 38.1431 25.1392 38.1431 23.0563V21.7166C38.1431 21.393 37.8809 21.1306 37.5572 21.1306C37.2335 21.1306 36.9712 21.393 36.9712 21.7166V23.0563C36.9712 24.7959 36.2126 26.4415 34.8898 27.5712C33.4023 28.8108 31.7166 29.2059 29.7035 28.8539C27.9498 28.6307 5.0618 24.983 5.05508 24.982C4.66703 24.9173 4.23609 24.5157 4.31711 23.9663C4.3807 23.566 4.81055 23.1324 5.36586 23.232C5.36586 23.232 30.3699 27.2226 30.3739 27.2232C31.4598 27.4152 32.8644 27.0712 33.7737 26.2644C34.7135 25.4616 35.2526 24.2924 35.2526 23.0564V17.4582H36.9713V18.9728C36.9713 19.2964 37.2336 19.5588 37.5573 19.5588C37.8809 19.5588 38.1432 19.2964 38.1432 18.9728V16.8723V14.9609C38.1432 14.3794 37.6701 13.9062 37.0885 13.9062H36.6979V12.1153C36.6979 10.8306 36.9191 10.1837 38.2304 9.74664C38.537 9.6443 38.703 9.3125 38.6007 9.00547ZM5.03031 21.9923C4.64227 21.9276 4.21133 21.5261 4.29234 20.9767C4.35055 20.5607 4.82836 20.1523 5.34039 20.2423L28.4001 23.8945C28.9279 23.9836 29.7479 24.2017 29.6236 24.9887C29.5586 25.3767 29.1576 25.8077 28.6079 25.7266L5.03031 21.9923ZM5.28352 17.2493C5.29422 17.251 20.8987 19.7209 20.8987 19.7209C21.2053 19.7702 21.4729 19.6045 21.569 19.2338C21.6196 18.9142 21.4016 18.6141 21.082 18.5634L4.98117 16.0133C4.59313 15.9486 4.16219 15.547 4.2432 14.9977C4.30141 14.5815 4.78016 14.173 5.29164 14.2633C5.29477 14.2638 28.3255 17.9132 28.8366 17.9941C29.32 18.0707 29.651 18.5263 29.5745 19.0098C29.4979 19.4932 29.0428 19.8242 28.5588 19.7477L23.7835 18.9913C23.4636 18.9406 23.1638 19.1589 23.1132 19.4784C23.0626 19.798 23.2806 20.0981 23.6002 20.1488C24.4742 20.2997 28.1001 20.8422 28.8611 20.9837C29.2491 21.0484 29.68 21.4499 29.599 21.9993C29.5224 22.4827 29.068 22.8137 28.5833 22.7372L5.00578 19.0028C4.61773 18.9381 4.1868 18.5366 4.26781 17.9872C4.34437 17.5038 4.79969 17.173 5.28352 17.2493ZM5.23438 11.2702C5.24539 11.272 28.7521 14.9951 28.812 15.0046C29.2955 15.0812 29.6265 15.5368 29.5499 16.0202C29.4734 16.5037 29.0184 16.8348 28.5342 16.7581L4.95656 13.0237C4.56859 12.959 4.13766 12.5575 4.21867 12.0081C4.29531 11.5248 4.75 11.1939 5.23438 11.2702ZM12.7045 8.28125H28.3981V10.7669L12.7045 8.28125ZM14.1253 5.15625C14.449 5.15625 14.7112 4.89391 14.7112 4.57031C14.7112 4.24672 14.449 3.98438 14.1253 3.98438H1.75758C1.43445 3.98438 1.17164 3.72156 1.17164 3.39844V1.75781C1.17164 1.43469 1.43445 1.17188 1.75758 1.17188H32.2263C32.5494 1.17188 32.8123 1.43469 32.8123 1.75781V3.39844C32.8123 3.72156 32.5494 3.98438 32.2263 3.98438H16.8597C16.536 3.98438 16.2737 4.24672 16.2737 4.57031C16.2737 4.89391 16.536 5.15625 16.8597 5.15625H29.9606V6.13281C29.9606 6.67133 29.5226 7.10938 28.9841 7.10938C28.9841 7.10938 5.07203 7.10469 4.90703 7.10469C4.37797 7.10469 4.02312 6.64 4.02312 6.13281V5.15625H14.1253ZM5.21336 8.28125L28.7873 12.015C29.2708 12.0916 29.6019 12.5472 29.5253 13.0306C29.4487 13.5141 28.9936 13.8453 28.5096 13.7685L4.93195 10.0341C4.54398 9.96937 4.11305 9.56789 4.19406 9.01852C4.24258 8.70703 4.58938 8.18242 5.21336 8.28125ZM4.34148 26.9559C4.40508 26.5556 4.83484 26.122 5.39008 26.2216C5.39008 26.2216 28.6634 29.9055 28.9348 29.9523C29.4182 30.0289 29.7493 30.4845 29.6727 30.968C29.5962 31.4514 29.1409 31.7829 28.657 31.7059L10.9387 28.8996C10.6191 28.8491 10.319 29.0671 10.2684 29.3866C10.2178 29.7062 10.4359 30.0064 10.7555 30.057L21.2477 31.7188H5.57367V29.2362C5.69781 29.2484 7.99859 29.6346 8.14703 29.6365C8.43023 29.6365 8.6793 29.4307 8.725 29.1421C8.77563 28.8225 8.55758 28.5223 8.23797 28.4717L5.07937 27.9714C4.69141 27.9067 4.26062 27.5052 4.34148 26.9559ZM32.8123 36.6016V38.2422C32.8123 38.5653 32.5494 38.8281 32.2263 38.8281H1.75758C1.43445 38.8281 1.17164 38.5653 1.17164 38.2422V36.6016C1.17164 36.2784 1.43445 36.0156 1.75758 36.0156H32.2263C32.5494 36.0156 32.8123 36.2784 32.8123 36.6016ZM4.0232 34.8438V33.8672C4.0232 33.3287 4.46125 32.8906 4.99977 32.8906H28.9841C29.5227 32.8906 29.9607 33.3287 29.9607 33.8672V34.8438H4.0232ZM36.971 16.2863H35.2523V15.0781H36.971V16.2863Z" fill="white"/>
</svg>
