<svg width="24" height="28" viewBox="0 0 24 28" fill="none" xmlns="http://www.w3.org/2000/svg">
<path d="M21.5814 7.47338C21.5608 7.31082 21.4835 7.16168 21.364 7.05407C21.2445 6.94646 21.0911 6.88782 20.9327 6.88921H17.3583V5.54628C17.3583 4.07532 16.7938 2.6646 15.7889 1.62447C14.784 0.584339 13.4211 0 12 0C10.5789 0 9.21597 0.584339 8.21108 1.62447C7.2062 2.6646 6.64166 4.07532 6.64166 5.54628V6.88921H3.06079C2.9024 6.88782 2.749 6.94646 2.6295 7.05407C2.51 7.16168 2.43267 7.31082 2.41208 7.47338L0.00536961 26.3683C-0.00687794 26.4663 0.00188696 26.5658 0.0310402 26.6598C0.0601934 26.7538 0.109018 26.84 0.174034 26.9122C0.446492 27.2144 0.744898 27.5233 1.06925 27.8254C1.18822 27.9373 1.34311 27.9996 1.50389 28H22.4961C22.6569 27.9996 22.8118 27.9373 22.9307 27.8254C23.2486 27.5233 23.5795 27.2144 23.826 26.9122C23.891 26.84 23.9398 26.7538 23.969 26.6598C23.9981 26.5658 24.0069 26.4663 23.9946 26.3683L21.5814 7.47338ZM7.95854 5.53285C7.95854 4.41805 8.38639 3.34891 9.14796 2.56063C9.90953 1.77235 10.9424 1.3295 12.0195 1.3295C13.0965 1.3295 14.1294 1.77235 14.891 2.56063C15.6525 3.34891 16.0804 4.41805 16.0804 5.53285V6.87578H7.93908L7.95854 5.53285ZM22.2301 26.6571H1.75688L1.32874 26.2273L3.62517 8.23213H20.3683L22.6648 26.2273L22.2301 26.6571Z" fill="#2958A4"/>
</svg>
