<svg width="22" height="40" viewBox="0 0 22 40" fill="none" xmlns="http://www.w3.org/2000/svg">
<path d="M1.94167 5.16732H2.58834V12.905C2.24546 12.9054 1.91675 13.0415 1.6743 13.2833C1.43185 13.5252 1.29545 13.8531 1.295 14.1951V20.2709C1.29545 20.6129 1.43185 20.9408 1.6743 21.1827C1.91675 21.4245 2.24546 21.5606 2.58834 21.561H3.235V23.3479C2.85786 23.4807 2.53112 23.7265 2.29958 24.0518C2.06803 24.3771 1.94301 24.7659 1.94167 25.1648V29.8537C1.94151 30.1949 2.03186 30.5301 2.20354 30.8252C2.37523 31.1203 2.62213 31.3648 2.91919 31.5339L6.14583 33.3675C6.24454 33.424 6.32642 33.5056 6.38309 33.604C6.43976 33.7024 6.46918 33.8141 6.46833 33.9276V34.4693C6.47004 34.8684 6.59539 35.2572 6.82722 35.5825C7.05905 35.9077 7.38602 36.1535 7.76333 36.2862V39.3549C7.76333 39.526 7.83146 39.6901 7.95274 39.8111C8.07401 39.932 8.23849 40 8.41 40H13.59C13.7617 40 13.9263 39.9321 14.0479 39.8112C14.1694 39.6902 14.2379 39.5262 14.2383 39.3549V36.2912C14.6153 36.1582 14.942 35.9123 15.1735 35.5871C15.405 35.2618 15.5301 34.8732 15.5317 34.4743V33.9326C15.5308 33.8191 15.5602 33.7074 15.6169 33.609C15.6736 33.5106 15.7555 33.429 15.8542 33.3725L19.0791 31.5389C19.3762 31.3696 19.6231 31.1251 19.7951 30.8301C19.967 30.5351 20.0578 30.2 20.0583 29.8587V25.1698C20.0572 24.7708 19.9323 24.3819 19.7007 24.0566C19.4692 23.7313 19.1423 23.4855 18.765 23.3529V21.561H19.4117C19.7545 21.5606 20.0833 21.4245 20.3257 21.1827C20.5682 20.9408 20.7046 20.6129 20.705 20.2709V14.1951C20.7046 13.8531 20.5682 13.5252 20.3257 13.2833C20.0833 13.0415 19.7545 12.9054 19.4117 12.905V5.16732H20.0583C20.5732 5.16688 21.0668 4.96267 21.4308 4.59952C21.7948 4.23638 21.9996 3.74397 22 3.23041V1.93525C21.9996 1.68053 21.9488 1.4284 21.8506 1.19325C21.7525 0.958115 21.6088 0.744579 21.4279 0.564853C21.2469 0.385128 21.0322 0.242736 20.7961 0.145816C20.56 0.0488962 20.307 -0.000650973 20.0517 6.4576e-06H1.94167C1.42713 0.000447037 0.933772 0.204426 0.569782 0.567211C0.205793 0.929996 0.000887531 1.42197 2.87507e-06 1.93525V3.22541C-0.000436331 3.48013 0.0494498 3.73243 0.146811 3.96791C0.244171 4.20338 0.387098 4.41741 0.56742 4.59775C0.747742 4.7781 0.961926 4.92123 1.19773 5.01896C1.43353 5.11668 1.68633 5.1671 1.94167 5.16732ZM16.8133 20.2759H15.525V14.1951H16.8183L16.8133 20.2759ZM14.225 20.2759H12.9316V14.1951H14.225V20.2759ZM11.6383 20.2759H10.345V14.1951H11.6383V20.2759ZM9.05165 20.2759H7.75832V14.1951H9.05165V20.2759ZM6.46332 20.2759H5.175V14.1951H6.46833L6.46332 20.2759ZM2.58332 20.2759V14.1951H3.87832V20.2709H2.58834L2.58332 20.2759ZM12.9316 38.7198H9.05666V36.4096H12.9367L12.9316 38.7198ZM18.7533 29.8587C18.7542 29.9722 18.7247 30.0839 18.6681 30.1823C18.6114 30.2807 18.5295 30.3624 18.4308 30.4188L15.2058 32.2524C14.9086 32.4214 14.6614 32.6659 14.4895 32.961C14.3175 33.256 14.2268 33.5913 14.2266 33.9326V34.4743C14.2262 34.6455 14.1577 34.8096 14.0362 34.9306C13.9146 35.0515 13.75 35.1194 13.5783 35.1194H8.3983C8.22679 35.1194 8.06231 35.0514 7.94104 34.9305C7.81977 34.8095 7.75164 34.6454 7.75164 34.4743V33.9326C7.75111 33.5913 7.6603 33.2562 7.48836 32.9612C7.31643 32.6662 7.06947 32.4217 6.77245 32.2524L3.5458 30.4188C3.4471 30.3624 3.36521 30.2807 3.30854 30.1823C3.25187 30.0839 3.22246 29.9722 3.2233 29.8587V25.1698C3.2233 24.9987 3.29144 24.8347 3.41271 24.7137C3.53398 24.5927 3.69846 24.5247 3.86997 24.5247H18.1C18.2715 24.5247 18.4359 24.5927 18.5572 24.7137C18.6785 24.8347 18.7466 24.9987 18.7466 25.1698L18.7533 29.8587ZM17.46 23.2329H4.52833V21.566H17.465L17.46 23.2329ZM19.4 20.2759H18.1066V14.1951H19.4V20.2759ZM3.88167 12.905V9.68455H8.30473C8.44885 10.2886 8.79295 10.8266 9.28142 11.2115C9.76988 11.5964 10.3742 11.8058 10.9967 11.8058C11.6191 11.8058 12.2234 11.5964 12.7119 11.2115C13.2004 10.8266 13.5445 10.2886 13.6886 9.68455H18.1117V12.905H3.88167ZM9.52287 9.0328C9.52253 8.74196 9.60869 8.45755 9.77043 8.21556C9.93217 7.97357 10.1622 7.78487 10.4315 7.67334C10.7008 7.56181 10.9972 7.53246 11.2832 7.589C11.5692 7.64553 11.8319 7.78543 12.0382 7.99097C12.2445 8.19651 12.385 8.45847 12.442 8.7437C12.499 9.02893 12.4699 9.32463 12.3584 9.59336C12.2469 9.8621 12.058 10.0918 11.8156 10.2534C11.5732 10.4151 11.2882 10.5013 10.9967 10.5013C10.6062 10.5009 10.2319 10.3461 9.95561 10.0708C9.67936 9.79556 9.52375 9.42229 9.52287 9.0328ZM18.1117 8.38439H13.6886C13.5438 7.78068 13.1993 7.24325 12.7108 6.85877C12.2222 6.47429 11.6181 6.26519 10.9958 6.26519C10.3736 6.26519 9.76942 6.47429 9.28088 6.85877C8.79234 7.24325 8.44788 7.78068 8.30306 8.38439H3.88167V5.16732H18.1117V8.38439ZM1.295 1.93525C1.295 1.85053 1.31173 1.76665 1.34423 1.68839C1.37673 1.61012 1.42436 1.53901 1.48441 1.47911C1.54446 1.41921 1.61574 1.37169 1.6942 1.33927C1.77266 1.30685 1.85675 1.29017 1.94167 1.29017H20.0517C20.1366 1.29017 20.2207 1.30685 20.2991 1.33927C20.3776 1.37169 20.4489 1.41921 20.5089 1.47911C20.569 1.53901 20.6166 1.61012 20.6491 1.68839C20.6816 1.76665 20.6983 1.85053 20.6983 1.93525V3.22541C20.6983 3.39665 20.6302 3.5609 20.509 3.68214C20.3878 3.80338 20.2233 3.87172 20.0517 3.87216H1.94167C1.77001 3.87172 1.60553 3.80338 1.48431 3.68214C1.36308 3.5609 1.295 3.39665 1.295 3.22541V1.93525Z" fill="white"/>
</svg>
