<svg width="40" height="40" viewBox="0 0 40 40" fill="none" xmlns="http://www.w3.org/2000/svg">
<path d="M1.81456 17.4797H5.16999C5.36846 18.1954 5.65434 18.8839 6.02197 19.5291L3.64703 21.9031C3.53362 22.0165 3.46983 22.1703 3.46983 22.331C3.46983 22.4916 3.53362 22.6454 3.64703 22.7588L6.21287 25.3254C6.44913 25.5612 6.83188 25.5612 7.06815 25.3254L9.44332 22.95C10.0886 23.3174 10.7763 23.6035 11.492 23.8017V27.1572C11.492 27.4912 11.7627 27.762 12.0968 27.762H15.7258C16.0599 27.762 16.3307 27.4912 16.3307 27.1572V23.8017C17.0463 23.6035 17.7341 23.3174 18.3793 22.95L20.7545 25.3254C20.9946 25.5522 21.37 25.5522 21.6098 25.3254L24.1761 22.7588C24.2895 22.6454 24.3533 22.4916 24.3533 22.331C24.3533 22.1703 24.2895 22.0165 24.1761 21.9031L21.8007 19.5291C22.1683 18.8839 22.4542 18.1954 22.6527 17.4797H26.0081C26.3422 17.4797 26.6129 17.209 26.6129 16.8749V13.2459C26.6129 12.912 26.3422 12.641 26.0081 12.641H22.6527C22.4542 11.9256 22.1683 11.2371 21.8007 10.5919L24.1756 8.2179C24.289 8.1045 24.3528 7.95069 24.3528 7.79003C24.3528 7.62937 24.289 7.47556 24.1756 7.36215L21.6098 4.7956C21.3735 4.55957 20.9908 4.55957 20.7545 4.7956L18.3793 7.17101C17.7341 6.80386 17.0461 6.51774 16.3307 6.31928V2.9636C16.3307 2.62976 16.0599 2.35876 15.7258 2.35876H12.0968C11.7627 2.35876 11.492 2.62976 11.492 2.9636V6.31928C10.7766 6.51774 10.0886 6.80386 9.44332 7.17101L7.06815 4.7956C6.8281 4.56879 6.45268 4.56879 6.21287 4.7956L3.64656 7.36215C3.53315 7.47556 3.46936 7.62937 3.46936 7.79003C3.46936 7.95069 3.53315 8.1045 3.64656 8.2179L6.02197 10.5919C5.65434 11.2371 5.36846 11.9256 5.16999 12.641H1.81456C1.48048 12.641 1.20972 12.912 1.20972 13.2459V16.8749C1.20972 17.209 1.48048 17.4797 1.81456 17.4797ZM2.41939 13.8507H5.64323C5.92746 13.8507 6.17341 13.6529 6.23413 13.3753C6.43259 12.4695 6.79148 11.6062 7.29378 10.8265C7.44712 10.5874 7.41309 10.2734 7.21203 10.0723L4.92948 7.78979L6.64051 6.07852L8.92259 8.36108C9.12365 8.56261 9.43789 8.59664 9.67746 8.44306C10.4574 7.941 11.3204 7.58211 12.2263 7.38342C12.5037 7.32246 12.7017 7.07651 12.7017 6.79228V3.56844H15.121V6.79228C15.121 7.07651 15.319 7.32246 15.5964 7.38342C16.5022 7.58211 17.3653 7.941 18.1452 8.44306C18.3848 8.59664 18.699 8.56261 18.9001 8.36108L21.1822 6.07852L22.8927 7.78979L20.6106 10.0716C20.4091 10.2729 20.3753 10.5872 20.5289 10.8265C21.0312 11.6067 21.3896 12.4697 21.5878 13.3758C21.6488 13.6534 21.8947 13.8514 22.1787 13.8514H25.4033V16.2708H22.1787C21.8947 16.2708 21.6488 16.4685 21.5878 16.7461C21.3896 17.652 21.0309 18.515 20.5289 19.2943C20.3755 19.5336 20.4096 19.8476 20.6106 20.0486L22.8932 22.3307L21.1822 24.0425L18.9001 21.7597C18.699 21.5584 18.3848 21.5244 18.1452 21.6779C17.3658 22.1802 16.5029 22.5391 15.5971 22.7376C15.3192 22.7981 15.121 23.0443 15.121 23.3285V26.5523H12.7017V23.3285C12.7017 23.0443 12.5034 22.7981 12.2256 22.7376C11.3197 22.5391 10.4569 22.1802 9.67746 21.6779C9.43789 21.5244 9.12365 21.5584 8.92259 21.7597L6.64051 24.0425L4.92995 22.3312L7.21203 20.0491C7.41357 19.8481 7.44735 19.5338 7.29378 19.2943C6.79148 18.5143 6.43259 17.651 6.23413 16.7449C6.17317 16.4673 5.92746 16.2701 5.64323 16.2701H2.41939V13.8507Z" fill="white"/>
<path d="M13.9113 19.8991C16.5837 19.8991 18.7501 17.733 18.7501 15.0604C18.7501 12.388 16.5837 10.2217 13.9113 10.2217C11.2389 10.2217 9.07263 12.388 9.07263 15.0604C9.07547 17.7314 11.2404 19.8963 13.9113 19.8991ZM13.9113 11.4314C15.9153 11.4314 17.5404 13.0564 17.5404 15.0604C17.5404 17.0646 15.9153 18.6894 13.9113 18.6894C11.9073 18.6894 10.2823 17.0646 10.2823 15.0604C10.2844 13.0569 11.9078 11.4335 13.9113 11.4314Z" fill="white"/>
<path d="M13.9113 21.7136C17.5857 21.7136 20.5645 18.735 20.5645 15.0604C20.5645 11.386 17.5857 8.40717 13.9113 8.40717C10.2369 8.40717 7.25806 11.386 7.25806 15.0604C7.26255 18.7331 10.2385 21.7094 13.9113 21.7136ZM13.9113 9.61684C16.9178 9.61684 19.3548 12.0539 19.3548 15.0604C19.3548 18.0669 16.9178 20.5039 13.9113 20.5039C10.9048 20.5039 8.46773 18.0669 8.46773 15.0604C8.47104 12.0556 10.9062 9.62015 13.9113 9.61684Z" fill="white"/>
<path d="M35.6855 30.1813V25.3426C35.6855 25.0088 35.4148 24.7378 35.0807 24.7378H33.871V19.8991C33.871 19.5652 33.6003 19.2943 33.2662 19.2943H27.8226C27.4885 19.2943 27.2178 19.5652 27.2178 19.8991V24.7378H24.1936C23.8595 24.7378 23.5888 25.0088 23.5888 25.3426V30.1813H4.23391C2.56446 30.1835 1.21184 31.5361 1.20972 33.2055V34.4152C1.21184 36.0849 2.56446 37.4375 4.23391 37.4394H35.6855C37.355 37.4375 38.7076 36.0849 38.7097 34.4152V33.2055C38.7076 31.5361 37.355 30.1835 35.6855 30.1813ZM34.4758 30.1813H30.242V25.9475H34.4758V30.1813ZM28.4275 20.5039H32.6613V24.7378H28.4275V20.5039ZM24.7984 25.9475H29.0323V30.1813H24.7984V25.9475ZM37.5 34.4152C37.5 35.4175 36.6875 36.2297 35.6855 36.2297H4.23391C3.23191 36.2297 2.41939 35.4175 2.41939 34.4152V33.2055C2.41939 32.2035 3.23191 31.391 4.23391 31.391H35.6855C36.6875 31.391 37.5 32.2035 37.5 33.2055V34.4152Z" fill="white"/>
<path d="M19.9597 31.9959C18.9577 31.9959 18.1451 32.8084 18.1451 33.8104C18.1451 34.8127 18.9577 35.6249 19.9597 35.6249C20.9617 35.6249 21.7742 34.8127 21.7742 33.8104C21.7742 32.8084 20.9617 31.9959 19.9597 31.9959ZM19.9597 34.4153C19.6256 34.4153 19.3548 34.1445 19.3548 33.8104C19.3548 33.4766 19.6256 33.2056 19.9597 33.2056C20.2937 33.2056 20.5645 33.4766 20.5645 33.8104C20.5645 34.1445 20.2937 34.4153 19.9597 34.4153Z" fill="white"/>
<path d="M13.9113 31.9959C12.9093 31.9959 12.0968 32.8084 12.0968 33.8104C12.0968 34.8127 12.9093 35.6249 13.9113 35.6249C14.9133 35.6249 15.7258 34.8127 15.7258 33.8104C15.7258 32.8084 14.9133 31.9959 13.9113 31.9959ZM13.9113 34.4153C13.5772 34.4153 13.3065 34.1445 13.3065 33.8104C13.3065 33.4766 13.5772 33.2056 13.9113 33.2056C14.2454 33.2056 14.5162 33.4766 14.5162 33.8104C14.5162 34.1445 14.2454 34.4153 13.9113 34.4153Z" fill="white"/>
<path d="M26.0081 31.9959C25.0061 31.9959 24.1936 32.8084 24.1936 33.8104C24.1936 34.8127 25.0061 35.6249 26.0081 35.6249C27.0101 35.6249 27.8226 34.8127 27.8226 33.8104C27.8226 32.8084 27.0101 31.9959 26.0081 31.9959ZM26.0081 34.4153C25.674 34.4153 25.4033 34.1445 25.4033 33.8104C25.4033 33.4766 25.674 33.2056 26.0081 33.2056C26.3422 33.2056 26.613 33.4766 26.613 33.8104C26.613 34.1445 26.3422 34.4153 26.0081 34.4153Z" fill="white"/>
<path d="M7.86286 31.9959C6.86086 31.9959 6.04834 32.8084 6.04834 33.8104C6.04834 34.8127 6.86086 35.6249 7.86286 35.6249C8.86486 35.6249 9.67737 34.8127 9.67737 33.8104C9.67737 32.8084 8.86486 31.9959 7.86286 31.9959ZM7.86286 34.4153C7.52878 34.4153 7.25802 34.1445 7.25802 33.8104C7.25802 33.4766 7.52878 33.2056 7.86286 33.2056C8.19694 33.2056 8.46769 33.4766 8.46769 33.8104C8.46769 34.1445 8.19694 34.4153 7.86286 34.4153Z" fill="white"/>
<path d="M32.0565 31.9959C31.0545 31.9959 30.2419 32.8084 30.2419 33.8104C30.2419 34.8127 31.0545 35.6249 32.0565 35.6249C33.0585 35.6249 33.871 34.8127 33.871 33.8104C33.871 32.8084 33.0585 31.9959 32.0565 31.9959ZM32.0565 34.4153C31.7224 34.4153 31.4516 34.1445 31.4516 33.8104C31.4516 33.4766 31.7224 33.2056 32.0565 33.2056C32.3905 33.2056 32.6613 33.4766 32.6613 33.8104C32.6613 34.1445 32.3905 34.4153 32.0565 34.4153Z" fill="white"/>
</svg>
