<svg width="40" height="40" viewBox="0 0 40 40" fill="none" xmlns="http://www.w3.org/2000/svg">
<g transform="translate(6.5, 6.5) scale(1.0)">
<path d="M16.1346 10.3654V4.59615M16.1346 10.3654L21.9038 10.3654M16.1346 10.3654L23.8269 2.67308M19.9808 25.75C9.35991 25.75 0.75 17.1401 0.75 6.51923V3.63462C0.75 2.04149 2.04149 0.75 3.63462 0.75H5.39311C6.05494 0.75 6.63184 1.20043 6.79235 1.8425L8.21004 7.51325C8.35079 8.07622 8.14042 8.66872 7.67618 9.0169L6.0177 10.2608C5.53636 10.6218 5.32351 11.2461 5.53047 11.8111C7.08353 16.0508 10.4492 19.4165 14.6889 20.9695C15.2539 21.1765 15.8782 20.9636 16.2392 20.4823L17.4831 18.8238C17.8313 18.3596 18.4238 18.1492 18.9868 18.29L24.6575 19.7076C25.2996 19.8682 25.75 20.4451 25.75 21.1069V22.8654C25.75 24.4585 24.4585 25.75 22.8654 25.75H19.9808Z" stroke="#2958A4" stroke-width="1.5" stroke-linecap="round" stroke-linejoin="round"/>
</g>
</svg>
