<svg width="50" height="50" viewBox="0 0 50 50" fill="none" xmlns="http://www.w3.org/2000/svg">
<path fill-rule="evenodd" clip-rule="evenodd" d="M11.7417 9.53211C12.3519 10.1423 12.3519 11.1316 11.7417 11.7418C4.41942 19.0641 4.41942 30.936 11.7417 38.2583C12.3519 38.8685 12.3519 39.8578 11.7417 40.468C11.1316 41.0782 10.1422 41.0782 9.53204 40.468C0.989322 31.9253 0.989319 18.0748 9.53204 9.53211C10.1422 8.92191 11.1316 8.92191 11.7417 9.53211ZM38.2583 9.53211C38.8684 8.92191 39.8578 8.92191 40.468 9.53211C49.0107 18.0748 49.0107 31.9253 40.468 40.468C39.8578 41.0782 38.8684 41.0782 38.2583 40.468C37.6481 39.8578 37.6481 38.8685 38.2583 38.2583C45.5806 30.936 45.5806 19.0641 38.2583 11.7418C37.6481 11.1316 37.6481 10.1423 38.2583 9.53211ZM16.1612 13.9515C16.7714 14.5617 16.7714 15.551 16.1612 16.1612C11.2796 21.0428 11.2796 28.9573 16.1612 33.8389C16.7714 34.4491 16.7714 35.4384 16.1612 36.0486C15.551 36.6588 14.5617 36.6588 13.9515 36.0486C7.84951 29.9467 7.84951 20.0535 13.9515 13.9515C14.5617 13.3413 15.551 13.3413 16.1612 13.9515ZM33.8388 13.9515C34.449 13.3413 35.4383 13.3413 36.0485 13.9515C42.1505 20.0535 42.1505 29.9467 36.0485 36.0486C35.4383 36.6588 34.449 36.6588 33.8388 36.0486C33.2286 35.4384 33.2286 34.4491 33.8388 33.8389C38.7204 28.9573 38.7204 21.0428 33.8388 16.1612C33.2286 15.551 33.2286 14.5617 33.8388 13.9515ZM20.5806 18.3709C21.1908 18.9811 21.1908 19.9705 20.5806 20.5807C18.1398 23.0214 18.1398 26.9787 20.5806 29.4195C21.1908 30.0297 21.1908 31.019 20.5806 31.6292C19.9704 32.2394 18.9811 32.2394 18.3709 31.6292C14.7097 27.968 14.7097 22.0321 18.3709 18.3709C18.9811 17.7607 19.9704 17.7607 20.5806 18.3709ZM29.4194 18.3709C30.0296 17.7607 31.0189 17.7607 31.6291 18.3709C35.2903 22.0321 35.2903 27.968 31.6291 31.6292C31.0189 32.2394 30.0296 32.2394 29.4194 31.6292C28.8092 31.019 28.8092 30.0297 29.4194 29.4195C31.8602 26.9787 31.8602 23.0214 29.4194 20.5807C28.8092 19.9705 28.8092 18.9811 29.4194 18.3709ZM22.6562 25.0001C22.6562 23.7057 23.7056 22.6563 25 22.6563C26.2944 22.6563 27.3438 23.7057 27.3438 25.0001C27.3438 26.2945 26.2944 27.3438 25 27.3438C23.7056 27.3438 22.6562 26.2945 22.6562 25.0001Z" fill="#457B9D"/>
</svg>
