<svg width="49" height="49" viewBox="0 0 49 49" fill="none" xmlns="http://www.w3.org/2000/svg">
<path d="M24.2188 9.375C16.0336 9.375 9.375 16.0336 9.375 24.2188C9.375 32.4039 16.0336 39.0625 24.2188 39.0625C32.4039 39.0625 39.0625 32.4039 39.0625 24.2188C39.0625 16.0336 32.4039 9.375 24.2188 9.375ZM24.2188 37.5C16.8953 37.5 10.9375 31.5422 10.9375 24.2188C10.9375 16.8953 16.8953 10.9375 24.2188 10.9375C31.5422 10.9375 37.5 16.8953 37.5 24.2188C37.5 31.5422 31.5422 37.5 24.2188 37.5Z" fill="#457B9D"/>
<path d="M24.2188 12.5C17.757 12.5 12.5 17.757 12.5 24.2188C12.5 30.6805 17.757 35.9375 24.2188 35.9375C30.6805 35.9375 35.9375 30.6805 35.9375 24.2188C35.9375 17.757 30.6805 12.5 24.2188 12.5ZM24.2188 34.375C18.6187 34.375 14.0625 29.8188 14.0625 24.2188C14.0625 18.6187 18.6187 14.0625 24.2188 14.0625C29.8188 14.0625 34.375 18.6187 34.375 24.2188C34.375 29.8188 29.8188 34.375 24.2188 34.375Z" fill="#457B9D"/>
<path d="M24.2188 6.25C14.3102 6.25 6.25 14.3109 6.25 24.2188C6.25 34.1266 14.3102 42.1875 24.2188 42.1875C34.1273 42.1875 42.1875 34.1266 42.1875 24.2188C42.1875 14.3109 34.1273 6.25 24.2188 6.25ZM24.2188 40.625C15.1727 40.625 7.8125 33.2656 7.8125 24.2188C7.8125 15.1719 15.1727 7.8125 24.2188 7.8125C33.2648 7.8125 40.625 15.1719 40.625 24.2188C40.625 33.2656 33.2648 40.625 24.2188 40.625Z" fill="#457B9D"/>
<path d="M24.2188 3.125C12.5875 3.125 3.125 12.5875 3.125 24.2188C3.125 35.85 12.5875 45.3125 24.2188 45.3125C35.85 45.3125 45.3125 35.85 45.3125 24.2188C45.3125 12.5875 35.85 3.125 24.2188 3.125ZM24.2188 43.75C13.4492 43.75 4.6875 34.9883 4.6875 24.2188C4.6875 13.4492 13.4492 4.6875 24.2188 4.6875C34.9883 4.6875 43.75 13.4492 43.75 24.2188C43.75 34.9883 34.9883 43.75 24.2188 43.75Z" fill="#457B9D"/>
<path d="M24.2188 0C10.8641 0 0 10.8648 0 24.2188V42.1875C0 43.6391 0.999219 44.8523 2.34375 45.2016V48.4375H3.90625V45.2016C5.25078 44.8523 6.25 43.6391 6.25 42.1875V40.4375C10.6852 45.3469 17.0977 48.4375 24.2188 48.4375C31.3398 48.4375 37.7523 45.3469 42.1875 40.4375V42.1875C42.1875 43.6391 43.1867 44.8523 44.5312 45.2016V48.4375H46.0938V45.2016C47.4383 44.8523 48.4375 43.6391 48.4375 42.1875V24.2188C48.4375 10.8648 37.5734 0 24.2188 0ZM4.6875 42.1875C4.6875 43.0492 3.98672 43.75 3.125 43.75C2.26328 43.75 1.5625 43.0492 1.5625 42.1875V32.7664C2.34453 34.832 3.40078 36.7641 4.6875 38.5172V42.1875ZM24.2188 46.875C11.7266 46.875 1.5625 36.7117 1.5625 24.2188C1.5625 11.7258 11.7266 1.5625 24.2188 1.5625C36.7109 1.5625 46.875 11.7258 46.875 24.2188C46.875 36.7117 36.7109 46.875 24.2188 46.875ZM46.875 42.1875C46.875 43.0492 46.1742 43.75 45.3125 43.75C44.4508 43.75 43.75 43.0492 43.75 42.1875V38.5172C45.0367 36.7641 46.093 34.8328 46.875 32.7664V42.1875Z" fill="#457B9D"/>
</svg>
