<svg width="50" height="50" viewBox="0 0 50 50" fill="none" xmlns="http://www.w3.org/2000/svg">
<path d="M34.4961 29.6187H32.5979C32.4526 28.8291 32.2448 28.0521 31.9771 27.2965L33.6194 26.3484C33.7878 26.2513 33.9104 26.0913 33.9607 25.9037C34.0111 25.716 33.9847 25.5161 33.8876 25.3479L31.8496 21.8185C31.6473 21.4682 31.1994 21.3483 30.8492 21.5504L29.2033 22.5005C28.6825 21.891 28.114 21.3225 27.5044 20.8018L28.4545 19.1565C28.5517 18.9882 28.5779 18.7882 28.5277 18.6006C28.4774 18.413 28.3547 18.253 28.1864 18.1559L24.6564 16.1182C24.3062 15.9158 23.8583 16.0359 23.656 16.3862L22.7076 18.0286C21.9517 17.7606 21.1743 17.5529 20.3848 17.4077V15.51C20.3848 15.1054 20.0568 14.7776 19.6523 14.7776H15.5763C15.1718 14.7776 14.8438 15.1054 14.8438 15.51V17.4077C14.0544 17.5529 13.277 17.7606 12.521 18.0286L11.5727 16.3862C11.3703 16.036 10.9223 15.9162 10.5722 16.1182L7.04219 18.1559C6.87393 18.253 6.75117 18.413 6.70088 18.6006C6.65059 18.7883 6.67695 18.9883 6.77412 19.1565L7.72422 20.8018C7.11455 21.3225 6.54609 21.8909 6.02529 22.5005L4.37939 21.5504C4.0291 21.348 3.58115 21.4681 3.37891 21.8184L1.34082 25.3478C1.24365 25.5162 1.21738 25.7161 1.26758 25.9037C1.31787 26.0913 1.44063 26.2513 1.60889 26.3484L3.25146 27.2965C2.9835 28.0523 2.77568 28.8293 2.63057 29.6187H0.732422C0.32793 29.6187 0 29.9465 0 30.3511V34.4264C0 34.831 0.32793 35.1588 0.732422 35.1588H2.63057C2.77578 35.9482 2.98359 36.7252 3.25146 37.481L1.60889 38.4292C1.44063 38.5262 1.31787 38.6863 1.26758 38.8739C1.21729 39.0616 1.24365 39.2615 1.34082 39.4297L3.37891 42.9591C3.58125 43.3093 4.029 43.4291 4.37939 43.2271L6.02529 42.277C6.54609 42.8866 7.11465 43.455 7.72422 43.9757L6.77412 45.621C6.67695 45.7894 6.65068 45.9893 6.70088 46.1769C6.75117 46.3645 6.87393 46.5246 7.04219 46.6216L10.5722 48.6593C10.9223 48.8614 11.3702 48.7416 11.5727 48.3913L12.521 46.7491C13.2769 47.0169 14.0542 47.2247 14.8438 47.3699V49.2675C14.8438 49.6721 15.1718 50 15.5763 50H19.6523C20.0568 50 20.3848 49.6721 20.3848 49.2675V47.3699C21.1744 47.2247 21.9518 47.0169 22.7076 46.7491L23.656 48.3913C23.8583 48.7416 24.3063 48.8615 24.6564 48.6593L28.1864 46.6216C28.3547 46.5246 28.4774 46.3645 28.5277 46.1769C28.578 45.9892 28.5517 45.7893 28.4545 45.621L27.5044 43.9757C28.1141 43.455 28.6825 42.8867 29.2033 42.277L30.8492 43.2271C31.1993 43.4293 31.6473 43.3093 31.8496 42.959L33.8876 39.4296C33.9847 39.2614 34.0111 39.0615 33.9607 38.8739C33.9104 38.6863 33.7878 38.5262 33.6194 38.4292L31.9771 37.481C32.2448 36.7254 32.4526 35.9484 32.5979 35.1588H34.4961C34.9007 35.1588 35.2285 34.831 35.2285 34.4264V30.3511C35.2285 29.9465 34.9007 29.6187 34.4961 29.6187ZM33.7637 33.694H31.975C31.61 33.694 31.3006 33.9628 31.2497 34.3244C31.0949 35.4241 30.8065 36.5028 30.3925 37.5304C30.2561 37.8688 30.3896 38.2561 30.7057 38.4384L32.2528 39.3316L30.9473 41.5924L29.3971 40.6976C29.0812 40.5151 28.6797 40.593 28.4548 40.8797C27.7698 41.7526 26.9799 42.5422 26.1069 43.227C25.82 43.4521 25.7424 43.8539 25.9247 44.1696L26.8195 45.7192L24.5582 47.0246L23.6648 45.4774C23.4823 45.1616 23.0951 45.0281 22.7569 45.1643C21.7289 45.5784 20.65 45.8667 19.5503 46.0214C19.1888 46.0723 18.9198 46.3816 18.9198 46.7467V48.5351H16.3086V46.7468C16.3086 46.3818 16.0397 46.0724 15.6781 46.0215C14.5783 45.8668 13.4994 45.5785 12.4715 45.1644C12.133 45.0281 11.746 45.1618 11.5636 45.4775L10.6702 47.0247L8.40889 45.7193L9.30381 44.1697C9.48613 43.854 9.4084 43.4521 9.12158 43.2271C8.24873 42.5423 7.45879 41.7526 6.77373 40.8798C6.54873 40.5931 6.14707 40.5155 5.83145 40.6977L4.28125 41.5925L2.97568 39.3317L4.52285 38.4385C4.83887 38.2562 4.97246 37.869 4.83604 37.5305C4.42188 36.5025 4.1334 35.4238 3.97881 34.3245C3.92793 33.9629 3.61865 33.6941 3.25352 33.6941H1.46484V31.0836H3.25352C3.61855 31.0836 3.92793 30.8148 3.97881 30.4533C4.1334 29.354 4.42188 28.2752 4.83604 27.2472C4.97236 26.9087 4.83887 26.5215 4.52285 26.3392L2.97568 25.446L4.28125 23.1852L5.83145 24.08C6.14707 24.2624 6.54873 24.1846 6.77373 23.8979C7.45869 23.025 8.24863 22.2354 9.12158 21.5506C9.4085 21.3255 9.48613 20.9238 9.30381 20.6081L8.40889 19.0584L10.6702 17.7531L11.5636 19.3001C11.746 19.6162 12.1331 19.7497 12.4714 19.6133C13.4998 19.1992 14.5787 18.9108 15.6781 18.7562C16.0396 18.7053 16.3086 18.396 16.3086 18.0309V16.2426H18.9198V18.0309C18.9198 18.3959 19.1887 18.7053 19.5503 18.7562C20.6497 18.9108 21.7286 19.1992 22.757 19.6133C23.0953 19.7498 23.4825 19.6162 23.6649 19.3001L24.5583 17.7531L26.8196 19.0584L25.9248 20.6081C25.7425 20.9238 25.8201 21.3256 26.107 21.5506C26.9799 22.2354 27.7698 23.0251 28.4549 23.8979C28.6799 24.1847 29.0815 24.2625 29.3972 24.08L30.9474 23.1852L32.2528 25.446L30.7057 26.3392C30.3896 26.5215 30.2561 26.9088 30.3925 27.2472C30.8065 28.2749 31.0949 29.3536 31.2497 30.4533C31.3006 30.8148 31.6099 31.0836 31.975 31.0836H33.7637V33.694Z" fill="#457B9D"/>
<path d="M49.2676 7.76729H47.9148C47.8066 7.46299 47.6823 7.16387 47.5428 6.87217L48.4982 5.91895C48.6359 5.78154 48.7133 5.59502 48.7133 5.40039C48.7133 5.20576 48.6359 5.01934 48.4982 4.88184L45.1061 1.49756C44.8202 1.2124 44.3575 1.2124 44.0715 1.49756L43.1145 2.45234C42.8213 2.3127 42.5208 2.18838 42.2149 2.08008V0.732422C42.2149 0.327832 41.8871 0 41.4825 0H36.6853C36.2807 0 35.9529 0.327832 35.9529 0.732422V2.08027C35.6469 2.18848 35.3464 2.31289 35.0533 2.45254L34.0962 1.49775C33.8105 1.2127 33.3476 1.2126 33.0617 1.49775L29.6695 4.88203C29.5318 5.01943 29.4543 5.20596 29.4543 5.40059C29.4543 5.59521 29.5317 5.78164 29.6695 5.91914L30.6249 6.87236C30.4854 7.16416 30.3612 7.46318 30.253 7.76748H28.9001C28.4957 7.76748 28.1677 8.09531 28.1677 8.4999V13.2859C28.1677 13.6905 28.4957 14.0184 28.9001 14.0184H30.253C30.3611 14.3227 30.4854 14.6217 30.6249 14.9135L29.6695 15.8667C29.5318 16.0041 29.4543 16.1906 29.4543 16.3853C29.4543 16.5799 29.5317 16.7663 29.6695 16.9038L33.0617 20.2881C33.3476 20.5732 33.8103 20.5732 34.0962 20.2881L35.0533 19.3333C35.3464 19.4729 35.6469 19.5973 35.9529 19.7056V21.0534C35.9529 21.458 36.2807 21.7858 36.6853 21.7858H41.4825C41.8871 21.7858 42.2149 21.458 42.2149 21.0534V19.7056C42.5208 19.5974 42.8213 19.4729 43.1145 19.3333L44.0715 20.2881C44.3574 20.5732 44.8203 20.5733 45.1061 20.2881L48.4982 16.9038C48.6359 16.7664 48.7133 16.5799 48.7133 16.3853C48.7133 16.1906 48.6359 16.0042 48.4982 15.8667L47.5428 14.9135C47.6823 14.6218 47.8065 14.3227 47.9148 14.0184H49.2676C49.6722 14.0184 50 13.6905 50 13.2859V8.49971C50 8.09521 49.6721 7.76729 49.2676 7.76729ZM48.5352 12.5533H47.3816C47.0554 12.5533 46.7687 12.7689 46.678 13.0822C46.5158 13.643 46.2897 14.187 46.0061 14.6991C45.8477 14.9852 45.8982 15.3415 46.1296 15.5725L46.944 16.385L44.5889 18.7347L43.7721 17.9197C43.5416 17.6896 43.1865 17.6395 42.9012 17.7969C42.3879 18.0798 41.8424 18.3055 41.2798 18.4675C40.9662 18.5578 40.7501 18.8448 40.7501 19.1713V20.3206H37.4178V19.1713C37.4178 18.8448 37.2018 18.5578 36.8881 18.4675C36.3255 18.3055 35.78 18.0798 35.2667 17.7969C34.9814 17.6394 34.6264 17.6895 34.3958 17.9197L33.5791 18.7347L31.224 16.385L32.0383 15.5725C32.2698 15.3415 32.3203 14.9851 32.1619 14.6991C31.8781 14.1867 31.652 13.6428 31.49 13.0823C31.3994 12.769 31.1125 12.5533 30.7864 12.5533H29.6328V9.23213H30.7864C31.1125 9.23213 31.3994 9.0165 31.49 8.70312C31.652 8.14277 31.8781 7.59873 32.1619 7.08633C32.3203 6.80029 32.2698 6.44394 32.0383 6.21299L31.224 5.40049L33.5791 3.05078L34.3958 3.86572C34.6265 4.0959 34.9817 4.14609 35.2667 3.98857C35.78 3.70566 36.3255 3.47998 36.8881 3.31797C37.2018 3.22764 37.4178 2.94062 37.4178 2.61416V1.46484H40.7501V2.61416C40.7501 2.94062 40.9662 3.22764 41.2798 3.31797C41.8424 3.47998 42.3879 3.70566 42.9012 3.98857C43.1867 4.146 43.5416 4.096 43.7721 3.86572L44.5889 3.05078L46.944 5.40049L46.1296 6.21299C45.8982 6.44394 45.8477 6.80039 46.0061 7.08633C46.2897 7.59834 46.5158 8.14238 46.678 8.70322C46.7687 9.0165 47.0554 9.23213 47.3816 9.23213H48.5352V12.5533Z" fill="#457B9D"/>
<path d="M39.0838 5.05713C38.1218 5.05713 37.1677 5.29551 36.3245 5.74658C35.9679 5.9373 35.8333 6.38115 36.0241 6.73779C36.2149 7.09443 36.6585 7.2292 37.0153 7.03818C37.6468 6.70049 38.362 6.52197 39.0838 6.52197C41.5004 6.52197 43.4664 8.48271 43.4664 10.8928C43.4664 13.3029 41.5004 15.2637 39.0838 15.2637C36.6672 15.2637 34.7012 13.3029 34.7012 10.8928C34.7012 10.2075 34.8555 9.55186 35.1598 8.94365C35.3408 8.58193 35.1943 8.14189 34.8325 7.96094C34.4706 7.78008 34.0308 7.92637 33.8498 8.28818C33.4427 9.10166 33.2363 9.97803 33.2363 10.8929C33.2363 14.1106 35.8595 16.7286 39.0838 16.7286C42.3081 16.7286 44.9312 14.1106 44.9312 10.8929C44.9312 7.6751 42.3081 5.05713 39.0838 5.05713Z" fill="#457B9D"/>
<path d="M17.6142 21.9126C11.8366 21.9126 7.13623 26.6122 7.13623 32.3888C7.13623 33.8027 7.41338 35.1747 7.95996 36.4668C8.11748 36.8393 8.54727 37.0135 8.91982 36.856C9.29238 36.6984 9.4666 36.2686 9.30898 35.8961C8.83916 34.7855 8.60098 33.6056 8.60098 32.3888C8.60098 27.4199 12.6442 23.3774 17.6141 23.3774C22.5839 23.3774 26.6271 27.42 26.6271 32.3888C26.6271 37.3575 22.5839 41.4 17.6141 41.4C14.9502 41.4 12.4368 40.2307 10.7186 38.1919C10.4579 37.8826 9.9959 37.8432 9.68652 38.1039C9.37725 38.3645 9.33779 38.8266 9.59854 39.1358C11.5958 41.5057 14.5174 42.8648 17.6142 42.8648C23.3918 42.8648 28.0921 38.1652 28.0921 32.3888C28.0921 26.6122 23.3917 21.9126 17.6142 21.9126Z" fill="#457B9D"/>
<path d="M17.6142 26.4918C18.2154 26.4918 18.8082 26.5817 19.3759 26.7591C19.7622 26.8798 20.1728 26.6645 20.2934 26.2783C20.414 25.8922 20.1988 25.4814 19.8127 25.3607C19.1034 25.1392 18.3637 25.0269 17.6143 25.0269C13.5542 25.0269 10.2512 28.3294 10.2512 32.3889C10.2512 36.4481 13.5543 39.7508 17.6143 39.7508C21.6744 39.7508 24.9775 36.4482 24.9775 32.3889C24.9775 30.4766 24.2476 28.6646 22.9224 27.2865C22.642 26.9952 22.1783 26.9859 21.8869 27.2664C21.5953 27.5468 21.5863 28.0105 21.8666 28.302C22.9282 29.4057 23.5127 30.857 23.5127 32.3889C23.5127 35.6405 20.8667 38.2859 17.6144 38.2859C14.3621 38.2859 11.7162 35.6405 11.7162 32.3889C11.7162 29.1372 14.3619 26.4918 17.6142 26.4918Z" fill="#457B9D"/>
<path d="M49.2675 28.7567H48.6689C48.5432 27.8686 48.1923 27.0518 47.6761 26.3661L48.101 25.9413C48.3872 25.6553 48.3872 25.1915 48.1011 24.9056C47.8151 24.6196 47.3513 24.6194 47.0654 24.9055L46.6404 25.3305C45.9546 24.8143 45.1376 24.4634 44.2492 24.3377V23.7393C44.2492 23.3347 43.9213 23.0068 43.5167 23.0068C43.1122 23.0068 42.7843 23.3347 42.7843 23.7393V24.3377C41.8959 24.4634 41.0789 24.8143 40.3931 25.3305L39.968 24.9055C39.6818 24.6193 39.218 24.6194 38.9323 24.9056C38.6462 25.1917 38.6462 25.6554 38.9324 25.9413L39.3574 26.3662C38.8412 27.0519 38.4903 27.8687 38.3646 28.7567H37.7659C37.3613 28.7567 37.0334 29.0846 37.0334 29.4892C37.0334 29.8937 37.3613 30.2216 37.7659 30.2216H38.3646C38.4903 31.1098 38.8412 31.9265 39.3574 32.6121L38.9325 33.0369C38.6464 33.3229 38.6463 33.7866 38.9324 34.0727C39.0753 34.2157 39.2628 34.2872 39.4503 34.2872C39.6377 34.2872 39.8251 34.2157 39.9682 34.0728L40.3933 33.6478C41.0791 34.164 41.896 34.5148 42.7845 34.6405V35.239C42.7845 35.6436 43.1124 35.9714 43.5169 35.9714C43.9215 35.9714 44.2494 35.6436 44.2494 35.239V34.6405C45.1377 34.5148 45.9547 34.1641 46.6405 33.6479L47.0655 34.0729C47.2085 34.2158 47.3959 34.2873 47.5834 34.2873C47.7709 34.2873 47.9584 34.2158 48.1013 34.0728C48.3874 33.7866 48.3874 33.323 48.1012 33.037L47.6763 32.6122C48.1925 31.9266 48.5434 31.1099 48.6691 30.2217H49.2677C49.6723 30.2217 50.0001 29.8938 50.0001 29.4893C50.0001 29.0847 49.672 28.7567 49.2675 28.7567ZM43.5167 33.2271C41.4551 33.2271 39.7779 31.5502 39.7779 29.4892C39.7779 27.428 41.4551 25.7512 43.5167 25.7512C45.5782 25.7512 47.2554 27.428 47.2554 29.4892C47.2554 31.5502 45.5782 33.2271 43.5167 33.2271Z" fill="#457B9D"/>
<path d="M43.5166 27.062C42.1782 27.062 41.0894 28.1507 41.0894 29.4891C41.0894 30.8272 42.1782 31.916 43.5166 31.916C44.855 31.916 45.9438 30.8273 45.9438 29.4891C45.9439 28.1508 44.855 27.062 43.5166 27.062ZM43.5166 30.4511C42.9858 30.4511 42.5542 30.0195 42.5542 29.489C42.5542 28.9584 42.9859 28.5268 43.5166 28.5268C44.0473 28.5268 44.479 28.9584 44.479 29.489C44.479 30.0195 44.0474 30.4511 43.5166 30.4511Z" fill="#457B9D"/>
</svg>
