<svg width="28" height="50" viewBox="0 0 28 50" fill="none" xmlns="http://www.w3.org/2000/svg">
<path d="M2.47122 6.45915H3.29425V16.1312C2.85786 16.1317 2.4395 16.3018 2.13093 16.6041C1.82235 16.9065 1.64875 17.3163 1.64819 17.7439V25.3386C1.64875 25.7661 1.82235 26.176 2.13093 26.4783C2.4395 26.7807 2.85786 26.9507 3.29425 26.9513H4.11727V29.1849C3.63728 29.3508 3.22143 29.6582 2.92673 30.0648C2.63204 30.4714 2.47293 30.9573 2.47122 31.456V37.3172C2.47101 37.7437 2.586 38.1626 2.80451 38.5315C3.02302 38.9004 3.33726 39.206 3.71533 39.4174L7.82197 41.7094C7.94759 41.7799 8.05181 41.882 8.12393 42.005C8.19606 42.128 8.2335 42.2676 8.23242 42.4095V43.0866C8.23459 43.5855 8.39414 44.0715 8.68919 44.4781C8.98425 44.8846 9.40038 45.1919 9.8806 45.3577V49.1936C9.8806 49.4075 9.96732 49.6126 10.1217 49.7638C10.276 49.915 10.4854 50 10.7036 50H17.2964C17.5148 50 17.7244 49.9151 17.8791 49.764C18.0338 49.6128 18.121 49.4077 18.1215 49.1936V45.364C18.6013 45.1978 19.017 44.8904 19.3117 44.4839C19.6063 44.0773 19.7656 43.5915 19.7676 43.0929V42.4157C19.7665 42.2739 19.8039 42.1343 19.8761 42.0112C19.9482 41.8882 20.0524 41.7862 20.178 41.7156L24.2825 39.4237C24.6606 39.212 24.9749 38.9064 25.1937 38.5376C25.4125 38.1688 25.5281 37.75 25.5288 37.3234V31.4623C25.5274 30.9635 25.3684 30.4774 25.0737 30.0708C24.7789 29.6641 24.3629 29.3568 23.8827 29.1912V26.9513H24.7058C25.1421 26.9507 25.5605 26.7807 25.8691 26.4783C26.1776 26.176 26.3513 25.7661 26.3518 25.3386V17.7439C26.3513 17.3163 26.1776 16.9065 25.8691 16.6041C25.5605 16.3018 25.1421 16.1317 24.7058 16.1312V6.45915H25.5288C26.184 6.4586 26.8123 6.20334 27.2756 5.7494C27.7389 5.29547 27.9994 4.67997 28 4.03801V2.41906C27.9994 2.10066 27.9348 1.78549 27.8099 1.49157C27.685 1.19764 27.5021 0.930724 27.2718 0.706067C27.0415 0.48141 26.7683 0.30342 26.4678 0.18227C26.1672 0.0611202 25.8453 -0.000813716 25.5203 8.072e-06H2.47122C1.81635 0.000558797 1.18844 0.255533 0.725178 0.709014C0.261918 1.1625 0.00112958 1.77747 3.65917e-06 2.41906V4.03176C-0.000555331 4.35016 0.0629361 4.66554 0.18685 4.95989C0.310764 5.25423 0.49267 5.52176 0.722171 5.74719C0.951672 5.97262 1.22427 6.15153 1.52438 6.27369C1.82449 6.39586 2.14623 6.45887 2.47122 6.45915ZM21.3988 25.3448H19.7591V17.7439H21.4051L21.3988 25.3448ZM18.1045 25.3448H16.4585V17.7439H18.1045V25.3448ZM14.8124 25.3448H13.1663V17.7439H14.8124V25.3448ZM11.5203 25.3448H9.87423V17.7439H11.5203V25.3448ZM8.22604 25.3448H6.58636V17.7439H8.23242L8.22604 25.3448ZM3.28787 25.3448V17.7439H4.93605V25.3386H3.29425L3.28787 25.3448ZM16.4585 48.3998H11.5267V45.5119H16.4648L16.4585 48.3998ZM23.8678 37.3234C23.8689 37.4653 23.8315 37.6049 23.7594 37.7279C23.6872 37.8509 23.583 37.9529 23.4574 38.0235L19.3529 40.3155C18.9746 40.5268 18.66 40.8323 18.4411 41.2012C18.2223 41.5701 18.1069 41.9891 18.1066 42.4157V43.0929C18.1061 43.3069 18.0189 43.512 17.8642 43.6632C17.7095 43.8144 17.5 43.8992 17.2815 43.8992H10.6887C10.4705 43.8992 10.2611 43.8143 10.1068 43.6631C9.95243 43.5118 9.86572 43.3067 9.86572 43.0929V42.4157C9.86505 41.9891 9.74947 41.5703 9.53064 41.2015C9.31182 40.8327 8.99751 40.5271 8.61948 40.3155L4.51284 38.0235C4.38721 37.9529 4.283 37.8509 4.21087 37.7279C4.13875 37.6049 4.10131 37.4653 4.10239 37.3234V31.4623C4.10239 31.2484 4.1891 31.0433 4.34345 30.8921C4.4978 30.7409 4.70714 30.6559 4.92542 30.6559H23.0363C23.2546 30.6559 23.4639 30.7409 23.6183 30.8921C23.7726 31.0433 23.8593 31.2484 23.8593 31.4623L23.8678 37.3234ZM22.2218 29.0411H5.76333V26.9575H22.2282L22.2218 29.0411ZM24.6909 25.3448H23.0448V17.7439H24.6909V25.3448ZM4.9403 16.1312V12.1057H10.5697C10.7531 12.8608 11.191 13.5332 11.8127 14.0144C12.4344 14.4955 13.2035 14.7572 13.9958 14.7572C14.788 14.7572 15.5571 14.4955 16.1788 14.0144C16.8005 13.5332 17.2384 12.8608 17.4218 12.1057H23.0512V16.1312H4.9403ZM12.12 11.291C12.1196 10.9274 12.2292 10.5719 12.4351 10.2694C12.6409 9.96696 12.9338 9.73109 13.2765 9.59167C13.6192 9.45226 13.9964 9.41557 14.3604 9.48625C14.7244 9.55692 15.0588 9.73178 15.3213 9.98871C15.5839 10.2456 15.7627 10.5731 15.8353 10.9296C15.9078 11.2862 15.8708 11.6558 15.7289 11.9917C15.587 12.3276 15.3466 12.6148 15.0381 12.8168C14.7296 13.0188 14.3668 13.1266 13.9958 13.1266C13.4988 13.1261 13.0224 12.9326 12.6708 12.5885C12.3192 12.2444 12.1211 11.7779 12.12 11.291ZM23.0512 10.4805H17.4218C17.2375 9.72586 16.7991 9.05406 16.1773 8.57346C15.5556 8.09286 14.7867 7.83148 13.9947 7.83148C13.2027 7.83148 12.4338 8.09286 11.812 8.57346C11.1903 9.05406 10.7518 9.72586 10.5675 10.4805H4.9403V6.45915H23.0512V10.4805ZM1.64819 2.41906C1.64819 2.31317 1.66948 2.20831 1.71084 2.11048C1.7522 2.01265 1.81282 1.92376 1.88925 1.84888C1.96567 1.77401 2.0564 1.71461 2.15626 1.67409C2.25611 1.63357 2.36313 1.61271 2.47122 1.61271H25.5203C25.6284 1.61271 25.7354 1.63357 25.8352 1.67409C25.9351 1.71461 26.0258 1.77401 26.1022 1.84888C26.1787 1.92376 26.2393 2.01265 26.2807 2.11048C26.322 2.20831 26.3433 2.31317 26.3433 2.41906V4.03176C26.3433 4.24581 26.2567 4.45112 26.1024 4.60267C25.9481 4.75423 25.7388 4.83964 25.5203 4.8402H2.47122C2.25274 4.83964 2.0434 4.75423 1.88912 4.60267C1.73483 4.45112 1.64819 4.24581 1.64819 4.03176V2.41906Z" fill="#457B9D"/>
</svg>
